<mxfile host="app.diagrams.net" modified="2021-02-24T06:52:54.828Z" agent="5.0 (Windows NT 10.0; Win64; x64) AppleWebKit/537.36 (KHTML, like Gecko) Chrome/88.0.4324.182 Safari/537.36" etag="2a_Pumry4nIQhwTW-b39" version="14.4.2" type="github">
  <diagram id="h_nkG6TmmhuTz6tZ-L_Y" name="Page-1">
    <mxGraphModel dx="1038" dy="548" grid="1" gridSize="10" guides="1" tooltips="1" connect="1" arrows="1" fold="1" page="1" pageScale="1" pageWidth="827" pageHeight="1169" math="0" shadow="0">
      <root>
        <mxCell id="0" />
        <mxCell id="1" parent="0" />
        <mxCell id="78EHQlwZfZ2g3v_zPuqt-2" style="edgeStyle=orthogonalEdgeStyle;rounded=0;orthogonalLoop=1;jettySize=auto;html=1;exitX=0.5;exitY=1;exitDx=0;exitDy=0;" parent="1" edge="1">
          <mxGeometry relative="1" as="geometry">
            <mxPoint x="60" y="130" as="sourcePoint" />
            <mxPoint x="60" y="130" as="targetPoint" />
          </mxGeometry>
        </mxCell>
        <mxCell id="78EHQlwZfZ2g3v_zPuqt-11" value="&lt;br&gt;&lt;span style=&quot;color: rgb(0 , 0 , 0) ; font-family: &amp;#34;helvetica&amp;#34; ; font-size: 15px ; font-style: normal ; font-weight: 400 ; letter-spacing: normal ; text-align: center ; text-indent: 0px ; text-transform: none ; word-spacing: 0px ; background-color: rgb(255 , 255 , 255) ; display: inline ; float: none&quot;&gt;onAuthenticated&lt;/span&gt;&lt;br&gt;" style="edgeStyle=orthogonalEdgeStyle;rounded=0;orthogonalLoop=1;jettySize=auto;html=1;" parent="1" source="78EHQlwZfZ2g3v_zPuqt-8" target="78EHQlwZfZ2g3v_zPuqt-10" edge="1">
          <mxGeometry relative="1" as="geometry">
            <Array as="points">
              <mxPoint x="100" y="160" />
              <mxPoint x="100" y="160" />
            </Array>
          </mxGeometry>
        </mxCell>
        <mxCell id="78EHQlwZfZ2g3v_zPuqt-8" value="" style="shape=umlLifeline;participant=umlEntity;perimeter=lifelinePerimeter;whiteSpace=wrap;html=1;container=1;collapsible=0;recursiveResize=0;verticalAlign=top;spacingTop=36;outlineConnect=0;" parent="1" vertex="1">
          <mxGeometry x="20" y="100" width="40" height="300" as="geometry" />
        </mxCell>
        <mxCell id="78EHQlwZfZ2g3v_zPuqt-9" value="HAL" style="text;html=1;strokeColor=none;fillColor=none;align=center;verticalAlign=middle;whiteSpace=wrap;rounded=0;" parent="1" vertex="1">
          <mxGeometry x="40" y="70" width="40" height="30" as="geometry" />
        </mxCell>
        <mxCell id="78EHQlwZfZ2g3v_zPuqt-16" value="onAuthenticated" style="edgeStyle=orthogonalEdgeStyle;rounded=0;orthogonalLoop=1;jettySize=auto;html=1;strokeWidth=2;fontSize=15;" parent="1" source="78EHQlwZfZ2g3v_zPuqt-10" target="78EHQlwZfZ2g3v_zPuqt-17" edge="1">
          <mxGeometry relative="1" as="geometry">
            <mxPoint x="330" y="200" as="targetPoint" />
            <Array as="points">
              <mxPoint x="180" y="170" />
              <mxPoint x="180" y="170" />
            </Array>
          </mxGeometry>
        </mxCell>
        <mxCell id="78EHQlwZfZ2g3v_zPuqt-10" value="" style="shape=umlLifeline;participant=umlEntity;perimeter=lifelinePerimeter;whiteSpace=wrap;html=1;container=1;collapsible=0;recursiveResize=0;verticalAlign=top;spacingTop=36;outlineConnect=0;" parent="1" vertex="1">
          <mxGeometry x="130" y="100" width="40" height="400" as="geometry" />
        </mxCell>
        <mxCell id="CTD5-Y3q6531WbQ9UscG-5" value="" style="html=1;points=[];perimeter=orthogonalPerimeter;" vertex="1" parent="78EHQlwZfZ2g3v_zPuqt-10">
          <mxGeometry x="15" y="320" width="10" height="40" as="geometry" />
        </mxCell>
        <mxCell id="CTD5-Y3q6531WbQ9UscG-6" value="waitforwindowdrawn" style="edgeStyle=orthogonalEdgeStyle;html=1;align=left;spacingLeft=2;endArrow=block;rounded=0;entryX=1;entryY=0;" edge="1" target="CTD5-Y3q6531WbQ9UscG-5" parent="78EHQlwZfZ2g3v_zPuqt-10" source="CTD5-Y3q6531WbQ9UscG-5">
          <mxGeometry x="0.0345" y="15" relative="1" as="geometry">
            <mxPoint x="20" y="300" as="sourcePoint" />
            <Array as="points">
              <mxPoint x="20" y="300" />
              <mxPoint x="45" y="300" />
              <mxPoint x="45" y="350" />
              <mxPoint x="25" y="350" />
            </Array>
            <mxPoint as="offset" />
          </mxGeometry>
        </mxCell>
        <mxCell id="78EHQlwZfZ2g3v_zPuqt-12" value="FW" style="text;html=1;strokeColor=none;fillColor=none;align=center;verticalAlign=middle;whiteSpace=wrap;rounded=0;" parent="1" vertex="1">
          <mxGeometry x="130" y="70" width="40" height="30" as="geometry" />
        </mxCell>
        <mxCell id="78EHQlwZfZ2g3v_zPuqt-38" value="&lt;span style=&quot;color: rgb(0 , 0 , 0) ; font-family: sans-serif ; font-size: 12px ; font-style: normal ; font-weight: 400 ; letter-spacing: normal ; text-indent: 0px ; text-transform: none ; word-spacing: 0px ; background-color: rgb(255 , 255 , 255) ; display: inline ; float: none&quot;&gt;requestGlobalDisplayState&lt;/span&gt;" style="edgeStyle=orthogonalEdgeStyle;rounded=0;orthogonalLoop=1;jettySize=auto;html=1;strokeWidth=1;fontSize=15;labelPosition=center;verticalLabelPosition=top;align=center;verticalAlign=bottom;" parent="1" source="78EHQlwZfZ2g3v_zPuqt-13" target="78EHQlwZfZ2g3v_zPuqt-37" edge="1">
          <mxGeometry x="-0.0529" y="10" relative="1" as="geometry">
            <Array as="points">
              <mxPoint x="600" y="210" />
              <mxPoint x="600" y="210" />
            </Array>
            <mxPoint as="offset" />
          </mxGeometry>
        </mxCell>
        <mxCell id="78EHQlwZfZ2g3v_zPuqt-13" value="" style="shape=umlLifeline;participant=umlEntity;perimeter=lifelinePerimeter;whiteSpace=wrap;html=1;container=1;collapsible=0;recursiveResize=0;verticalAlign=top;spacingTop=36;outlineConnect=0;" parent="1" vertex="1">
          <mxGeometry x="520" y="100" width="40" height="420" as="geometry" />
        </mxCell>
        <mxCell id="78EHQlwZfZ2g3v_zPuqt-15" value="FW-Power" style="text;html=1;strokeColor=none;fillColor=none;align=center;verticalAlign=middle;whiteSpace=wrap;rounded=0;" parent="1" vertex="1">
          <mxGeometry x="520" y="70" width="40" height="30" as="geometry" />
        </mxCell>
        <mxCell id="78EHQlwZfZ2g3v_zPuqt-24" value="KeyGuardGoingAway" style="edgeStyle=orthogonalEdgeStyle;rounded=0;orthogonalLoop=1;jettySize=auto;html=1;fontSize=15;labelPosition=center;verticalLabelPosition=top;align=center;verticalAlign=bottom;" parent="1" source="78EHQlwZfZ2g3v_zPuqt-17" target="78EHQlwZfZ2g3v_zPuqt-10" edge="1">
          <mxGeometry relative="1" as="geometry">
            <Array as="points">
              <mxPoint x="180" y="250" />
              <mxPoint x="180" y="250" />
            </Array>
          </mxGeometry>
        </mxCell>
        <mxCell id="78EHQlwZfZ2g3v_zPuqt-17" value="" style="shape=umlLifeline;participant=umlEntity;perimeter=lifelinePerimeter;whiteSpace=wrap;html=1;container=1;collapsible=0;recursiveResize=0;verticalAlign=top;spacingTop=36;outlineConnect=0;" parent="1" vertex="1">
          <mxGeometry x="334" y="100" width="40" height="390" as="geometry" />
        </mxCell>
        <mxCell id="78EHQlwZfZ2g3v_zPuqt-19" value="SystemUI" style="text;html=1;strokeColor=none;fillColor=none;align=center;verticalAlign=middle;whiteSpace=wrap;rounded=0;" parent="1" vertex="1">
          <mxGeometry x="334" y="70" width="40" height="30" as="geometry" />
        </mxCell>
        <mxCell id="78EHQlwZfZ2g3v_zPuqt-29" value="" style="edgeStyle=orthogonalEdgeStyle;rounded=0;orthogonalLoop=1;jettySize=auto;html=1;verticalAlign=top;horizontal=1;fontSize=15;" parent="1" source="78EHQlwZfZ2g3v_zPuqt-21" target="78EHQlwZfZ2g3v_zPuqt-10" edge="1">
          <mxGeometry relative="1" as="geometry">
            <Array as="points">
              <mxPoint x="400" y="320" />
              <mxPoint x="400" y="320" />
            </Array>
          </mxGeometry>
        </mxCell>
        <mxCell id="78EHQlwZfZ2g3v_zPuqt-33" value="DrawDone" style="edgeLabel;html=1;align=right;verticalAlign=bottom;resizable=0;points=[];fontSize=15;labelPosition=left;verticalLabelPosition=top;" parent="78EHQlwZfZ2g3v_zPuqt-29" vertex="1" connectable="0">
          <mxGeometry x="-0.1622" relative="1" as="geometry">
            <mxPoint x="26.5" y="10" as="offset" />
          </mxGeometry>
        </mxCell>
        <mxCell id="78EHQlwZfZ2g3v_zPuqt-21" value="" style="shape=umlLifeline;participant=umlEntity;perimeter=lifelinePerimeter;whiteSpace=wrap;html=1;container=1;collapsible=0;recursiveResize=0;verticalAlign=top;spacingTop=36;outlineConnect=0;" parent="1" vertex="1">
          <mxGeometry x="430" y="100" width="40" height="390" as="geometry" />
        </mxCell>
        <mxCell id="78EHQlwZfZ2g3v_zPuqt-22" value="Launcher" style="text;html=1;strokeColor=none;fillColor=none;align=center;verticalAlign=middle;whiteSpace=wrap;rounded=0;" parent="1" vertex="1">
          <mxGeometry x="430" y="70" width="40" height="30" as="geometry" />
        </mxCell>
        <mxCell id="78EHQlwZfZ2g3v_zPuqt-28" value="&lt;font style=&quot;font-size: 15px&quot;&gt;ResumeActivity&lt;/font&gt;" style="html=1;verticalAlign=middle;endArrow=block;align=center;labelPosition=center;verticalLabelPosition=middle;" parent="1" source="78EHQlwZfZ2g3v_zPuqt-10" target="78EHQlwZfZ2g3v_zPuqt-21" edge="1">
          <mxGeometry width="80" relative="1" as="geometry">
            <mxPoint x="310" y="260" as="sourcePoint" />
            <mxPoint x="460" y="340" as="targetPoint" />
            <Array as="points">
              <mxPoint x="210" y="270" />
              <mxPoint x="450" y="270" />
            </Array>
          </mxGeometry>
        </mxCell>
        <mxCell id="78EHQlwZfZ2g3v_zPuqt-32" value="&lt;font style=&quot;font-size: 15px&quot;&gt;startKeyguardExitAnimation&lt;/font&gt;" style="html=1;verticalAlign=bottom;endArrow=block;" parent="1" source="78EHQlwZfZ2g3v_zPuqt-10" target="78EHQlwZfZ2g3v_zPuqt-17" edge="1">
          <mxGeometry x="-0.1599" width="80" relative="1" as="geometry">
            <mxPoint x="150" y="330" as="sourcePoint" />
            <mxPoint x="230" y="330" as="targetPoint" />
            <Array as="points">
              <mxPoint x="190" y="350" />
            </Array>
            <mxPoint as="offset" />
          </mxGeometry>
        </mxCell>
        <mxCell id="78EHQlwZfZ2g3v_zPuqt-36" value="startWakeAndUnlock" style="html=1;verticalAlign=bottom;endArrow=block;strokeWidth=1;fontSize=15;rounded=0;" parent="1" source="78EHQlwZfZ2g3v_zPuqt-17" target="78EHQlwZfZ2g3v_zPuqt-13" edge="1">
          <mxGeometry width="80" relative="1" as="geometry">
            <mxPoint x="310" y="260" as="sourcePoint" />
            <mxPoint x="390" y="260" as="targetPoint" />
            <Array as="points">
              <mxPoint x="380" y="190" />
            </Array>
          </mxGeometry>
        </mxCell>
        <mxCell id="78EHQlwZfZ2g3v_zPuqt-40" value="" style="edgeStyle=orthogonalEdgeStyle;rounded=0;orthogonalLoop=1;jettySize=auto;html=1;strokeWidth=1;fontSize=15;" parent="1" source="78EHQlwZfZ2g3v_zPuqt-37" target="78EHQlwZfZ2g3v_zPuqt-13" edge="1">
          <mxGeometry relative="1" as="geometry">
            <mxPoint x="599.5" y="250" as="targetPoint" />
            <Array as="points">
              <mxPoint x="630" y="360" />
              <mxPoint x="630" y="360" />
            </Array>
          </mxGeometry>
        </mxCell>
        <mxCell id="78EHQlwZfZ2g3v_zPuqt-37" value="" style="shape=umlLifeline;participant=umlEntity;perimeter=lifelinePerimeter;whiteSpace=wrap;html=1;container=1;collapsible=0;recursiveResize=0;verticalAlign=top;spacingTop=36;outlineConnect=0;" parent="1" vertex="1">
          <mxGeometry x="700" y="100" width="40" height="420" as="geometry" />
        </mxCell>
        <mxCell id="CTD5-Y3q6531WbQ9UscG-1" value="" style="edgeStyle=orthogonalEdgeStyle;rounded=0;orthogonalLoop=1;jettySize=auto;html=1;verticalAlign=top;horizontal=1;fontSize=15;" edge="1" parent="1" source="78EHQlwZfZ2g3v_zPuqt-17" target="78EHQlwZfZ2g3v_zPuqt-10">
          <mxGeometry relative="1" as="geometry">
            <Array as="points">
              <mxPoint x="210" y="390" />
              <mxPoint x="210" y="390" />
            </Array>
            <mxPoint x="440" y="460" as="sourcePoint" />
            <mxPoint x="140" y="460" as="targetPoint" />
          </mxGeometry>
        </mxCell>
        <mxCell id="CTD5-Y3q6531WbQ9UscG-2" value="onDrawn" style="edgeLabel;html=1;align=right;verticalAlign=bottom;resizable=0;points=[];fontSize=15;labelPosition=left;verticalLabelPosition=top;" vertex="1" connectable="0" parent="CTD5-Y3q6531WbQ9UscG-1">
          <mxGeometry x="-0.1622" relative="1" as="geometry">
            <mxPoint x="26.5" y="10" as="offset" />
          </mxGeometry>
        </mxCell>
        <mxCell id="CTD5-Y3q6531WbQ9UscG-7" value="" style="html=1;verticalAlign=bottom;labelBackgroundColor=none;endArrow=block;endFill=1;" edge="1" parent="1" target="78EHQlwZfZ2g3v_zPuqt-13">
          <mxGeometry width="160" relative="1" as="geometry">
            <mxPoint x="150" y="480" as="sourcePoint" />
            <mxPoint x="310" y="480" as="targetPoint" />
          </mxGeometry>
        </mxCell>
        <mxCell id="CTD5-Y3q6531WbQ9UscG-8" value="" style="html=1;verticalAlign=bottom;labelBackgroundColor=none;endArrow=block;endFill=1;" edge="1" parent="1">
          <mxGeometry width="160" relative="1" as="geometry">
            <mxPoint x="530" y="480" as="sourcePoint" />
            <mxPoint x="720" y="480" as="targetPoint" />
          </mxGeometry>
        </mxCell>
        <mxCell id="CTD5-Y3q6531WbQ9UscG-10" value="" style="edgeStyle=orthogonalEdgeStyle;rounded=0;orthogonalLoop=1;jettySize=auto;html=1;strokeWidth=1;fontSize=15;" edge="1" parent="1">
          <mxGeometry relative="1" as="geometry">
            <mxPoint x="540" y="510" as="targetPoint" />
            <Array as="points">
              <mxPoint x="630.5" y="510" />
              <mxPoint x="630.5" y="510" />
            </Array>
            <mxPoint x="720" y="510" as="sourcePoint" />
          </mxGeometry>
        </mxCell>
        <mxCell id="CTD5-Y3q6531WbQ9UscG-11" value="&lt;span style=&quot;color: rgb(0, 0, 0); font-family: sans-serif; font-size: 12px; font-style: normal; font-weight: 400; letter-spacing: normal; text-align: center; text-indent: 0px; text-transform: none; word-spacing: 0px; background-color: rgb(255, 255, 255); display: inline; float: none;&quot;&gt;requestGlobalDisplayState&lt;/span&gt;" style="text;whiteSpace=wrap;html=1;" vertex="1" parent="1">
          <mxGeometry x="550" y="440" width="180" height="30" as="geometry" />
        </mxCell>
      </root>
    </mxGraphModel>
  </diagram>
</mxfile>
